<svg width="76" height="76" viewBox="0 0 76 76" fill="none" xmlns="http://www.w3.org/2000/svg">
<path d="M0.5 15.7997C0.5 7.51538 7.21573 0.799652 15.5 0.799652H60.5C68.7843 0.799652 75.5 7.51538 75.5 15.7997V60.7997C75.5 69.0839 68.7843 75.7997 60.5 75.7997H15.5C7.21573 75.7997 0.5 69.0839 0.5 60.7997V15.7997Z" fill="#E6E4E5"/>
<path d="M43.4168 64.5647H36.2346V9.5647H43.4168V64.5647ZM30.4334 22.991L25.3574 17.908L32.6434 10.5616V20.763L30.4334 22.991Z" fill="#ED1F25"/>
<path d="M13.057 52.9461L14.2944 57.5875C14.2949 58.3572 14.6882 58.6311 15.4759 58.4122L32.392 53.6982V46.1245L14.2375 51.4638C13.4503 51.6831 13.057 52.1765 13.057 52.9461ZM57.2605 34.0389C57.2601 31.1395 56.5064 29.1235 54.9945 27.9906C53.4867 26.8558 51.2377 26.7045 48.2561 27.5347L47.2187 27.8235V34.3485C48.6375 34.1426 49.9034 34.4952 49.9038 36.2386V38.3878C49.9038 39.2959 49.6987 40.0692 49.2842 40.7069C48.9638 41.2063 47.8948 41.9209 47.2187 42.199V49.5681L48.1532 49.3081C51.2735 48.4389 53.5721 47.0121 55.05 45.029C56.5243 43.0473 57.261 40.7801 57.261 38.2305L57.2605 34.0389ZM25.6912 31.0284V29.2462C25.6912 28.3382 25.8963 27.5644 26.3067 26.9275C26.5242 26.5892 27.4289 26.0015 27.8112 25.7641L22.71 20.6538C21.9059 21.249 21.1839 21.8992 20.6207 22.6573C19.1469 24.639 18.4102 26.9058 18.4106 29.4558V33.2804C18.4111 36.1798 19.1648 38.1958 20.6725 39.3301C22.1845 40.4635 24.4289 40.6162 27.4147 39.7846L32.392 38.3985V31.9535L28.9596 32.9092C27.1755 33.4063 25.6916 32.9837 25.6912 31.0284Z" fill="#231F20"/>
<path d="M32.5066 57.9986H19.0504C16.1803 57.9986 13.8454 55.6434 13.8454 52.7486V23.2141C13.8454 20.3193 16.1803 17.9641 19.0504 17.9641H20.9951L26.5572 12.0343H19.228C13.3125 12.0343 8.5 16.8868 8.5 22.8513V53.1119C8.5 59.0765 13.3125 63.9289 19.228 63.9289H32.5066V57.9986Z" fill="#231F20"/>
<path d="M56.772 12.0343H47.0841V17.9646H56.9487C59.8193 17.9646 62.1546 20.3193 62.1546 23.2146V52.7481C62.1546 55.6434 59.8193 57.9986 56.9487 57.9986H47.0841V63.9289H56.772C62.6875 63.9289 67.5 59.0765 67.5 53.1119V22.8513C67.5 16.8868 62.6875 12.0343 56.772 12.0343Z" fill="#231F20"/>
</svg>
